<?xml version="1.0" standalone="no"?>
<!DOCTYPE svg PUBLIC "-//W3C//DTD SVG 1.1//EN" "http://www.w3.org/Graphics/SVG/1.1/DTD/svg11.dtd" >
<svg xmlns="http://www.w3.org/2000/svg">
<metadata>Generated by IcoMoon</metadata>
<defs>
<font id="icomoon" horiz-adv-x="1024">
<font-face units-per-em="1024" ascent="960" descent="-64" />
<missing-glyph horiz-adv-x="1024" />
<glyph unicode="&#x20;" horiz-adv-x="512" d="" />
<glyph unicode="&#xe900;" glyph-name="px_close" d="M892.343 930.743l-863.086-863.086c-29.257-29.257-29.257-73.143 0-102.4s73.143-29.257 102.4 0l863.086 863.086c29.257 29.257 29.257 73.143 0 102.4s-73.143 43.886-102.4 0zM29.257 828.343l863.086-863.086c29.257-29.257 73.143-29.257 102.4 0s29.257 73.143 0 102.4l-863.086 863.086c-29.257 29.257-73.143 29.257-102.4 0s-43.886-73.143 0-102.4z" />
<glyph unicode="&#xe901;" glyph-name="x4px_down" d="M678.4 469.333l-153.6-157.867c-8.533-8.533-21.333-8.533-25.6 0l-149.333 157.867c-12.8 12.8-4.267 29.867 12.8 29.867h307.2c8.533 4.267 17.067-17.067 8.533-29.867z" />
<glyph unicode="&#xe902;" glyph-name="px_add" d="M535.273 471.273v256h-46.545v-256h-256v-46.545h256v-256h46.545v256h256v46.545h-256zM512-64c-282.77 0-512 229.23-512 512s229.23 512 512 512c282.77 0 512-229.23 512-512s-229.23-512-512-512zM512-17.455c257.063 0 465.455 208.391 465.455 465.455s-208.391 465.455-465.455 465.455c-257.063 0-465.455-208.391-465.455-465.455s208.391-465.455 465.455-465.455z" />
<glyph unicode="&#xe903;" glyph-name="px_chongzhi" d="M1015.467 332.8l-85.333 140.8c0 4.267-4.267 4.267-4.267 8.533v8.533c-4.267 0-4.267 4.267-8.533 4.267s-4.267 4.267-8.533 4.267h-17.067c-4.267 0-4.267 0-8.533-4.267-4.267 0-4.267 0-8.533-4.267l-140.8-89.6c-21.333-12.8-25.6-38.4-12.8-64 8.533-12.8 21.333-21.333 38.4-21.333 8.533 0 17.067 0 21.333 4.267l46.933 29.867c-25.6-162.133-162.133-281.6-328.533-281.6-123.733 0-238.933 72.533-298.667 183.467-12.8 21.333-38.4 29.867-59.733 17.067-21.333-4.267-29.867-29.867-17.067-55.467 72.533-140.8 217.6-230.4 375.467-230.4 209.067 0 384 153.6 413.867 354.133l29.867-55.467c8.533-12.8 21.333-21.333 38.4-21.333 8.533 0 12.8 0 21.333 4.267 21.333 21.333 29.867 46.933 12.8 68.267zM119.467 401.067l12.8-12.8c4.267-4.267 12.8-4.267 17.067-4.267s8.533 0 17.067 4.267c0 0 4.267 0 4.267 4.267 4.267 0 8.533 4.267 8.533 4.267l119.467 115.2c17.067 17.067 17.067 42.667 0 64s-42.667 17.067-64 0l-55.467-46.933c17.067 170.667 166.4 298.667 332.8 298.667 123.733 0 238.933-72.533 294.4-187.733 8.533-21.333 34.133-29.867 59.733-21.333 29.867 4.267 38.4 34.133 29.867 55.467-72.533 140.8-213.333 230.4-375.467 234.667h-4.267c-213.333 0-388.267-162.133-418.133-366.933l-21.333 42.667c-17.067 17.067-42.667 17.067-64 4.267-17.067-17.067-17.067-42.667-4.267-64 0 0 110.933-123.733 110.933-123.733z" />
<glyph unicode="&#xe904;" glyph-name="px_clear" d="M1006.933 783.644c22.756 22.756 22.756 56.889 0 79.644l-79.644 79.644c-11.378 11.378-22.756 17.067-39.822 17.067s-28.444-5.689-39.822-17.067l-62.578-62.578c-45.511-45.511-102.4-68.267-159.289-68.267s-113.778 22.756-153.6 68.267l-39.822 39.822c-11.378 11.378-28.444 17.067-39.822 17.067-17.067 0-28.444-5.689-39.822-17.067l-119.467-119.467c-22.756-22.756-22.756-56.889 0-79.644l17.067-17.067-233.244-238.933c-22.756-22.756-22.756-56.889 0-79.644l438.044-438.044c5.689-5.689 22.756-11.378 34.133-11.378h5.689c11.378 0 28.444 5.689 34.133 17.067l238.933 238.933 17.067-17.067c11.378-11.378 22.756-17.067 39.822-17.067s28.444 5.689 39.822 17.067l119.467 119.467c22.756 22.756 22.756 56.889 0 79.644l-39.822 39.822c-85.333 85.333-85.333 227.556 0 318.578l62.578 51.2zM56.889 425.244l233.244 233.244 79.644-79.644-233.244-233.244-79.644 79.644zM199.111 283.022l-28.444 28.444 233.244 233.244 79.644-79.644-233.244-233.244-51.2 51.2zM312.889 169.244l-22.756 22.756 233.244 233.244 79.644-79.644-233.244-233.244-56.889 56.889zM489.244-7.111l-79.644 79.644 233.244 233.244 79.644-79.644-233.244-233.244zM904.533 368.356l39.822-39.822-119.467-119.467-551.822 551.822 119.467 119.467 39.822-39.822c51.2-51.2 119.467-85.333 193.422-85.333s147.911 28.444 199.111 79.644l62.578 68.267 79.644-79.644-62.578-62.578c-108.089-108.089-108.089-284.444 0-392.533z" />
<glyph unicode="&#xe905;" glyph-name="px_del" d="M937.052 812.57h-248.017l-68.195 67.58c-5.756 6.59-14.174 10.73-23.56 10.73-0.027 0-0.054 0-0.081 0l-169.898-0.088c-8.009 0-16.055-3.060-22.135-9.176l-68.858-69.046h-248.844c-17.199 0-31.146-13.789-31.146-30.796 0-16.989 13.947-30.778 31.146-30.778h261.736c0.022 0 0.048 0 0.074 0 9.444 0 17.909 4.191 23.637 10.815l0.033 0.040 67.264 67.456h144.186l69.807-69.172c6.080-6.028 14.053-9.050 22.028-9.050v-0.090h260.82c17.202 0 31.148 13.787 31.148 30.778 0 17.009-13.944 30.797-31.148 30.797zM377.311 169.005v458.639c0 17.006-13.932 30.794-31.131 30.794-17.181 0-31.13-13.787-31.13-30.794v-458.639c0-17.005 13.946-30.778 31.13-30.778 17.199 0 31.131 13.773 31.131 30.778zM861.35 680.571c-17.202 0-31.148-13.789-31.148-30.778h-0.003v-544.16c0-11.598-4.827-22.15-12.572-29.823-0.41-0.404-0.835-0.829-1.233-1.272-7.565-6.912-17.74-11.155-28.928-11.155h-550.413c-11.726 0-22.419 4.773-30.162 12.428-7.744 7.672-12.572 18.243-12.572 29.823v544.16c0 16.988-13.943 30.776-31.148 30.776-17.201 0-31.146-13.788-31.146-30.776v-544.163c0-28.585 11.817-54.552 30.828-73.343 19.023-18.81 45.292-30.492 74.202-30.492h550.414c27.82 0 53.248 10.925 72.165 28.637 0.742 0.64 1.406 1.245 2.052 1.869l-0.015-0.014c19.008 18.79 30.828 44.774 30.828 73.343v544.163c-0.003 16.988-13.951 30.778-31.15 30.778zM543.383 169.005v458.639c0 17.006-13.93 30.794-31.13 30.794-17.183 0-31.131-13.787-31.131-30.794v-458.639c0-17.005 13.947-30.778 31.131-30.778 17.199 0 31.13 13.773 31.13 30.778zM709.472 169.005v458.639c0 17.006-13.947 30.794-31.13 30.794-17.198 0-31.15-13.787-31.15-30.794v-458.639c0-17.005 13.949-30.778 31.15-30.778 17.183 0 31.13 13.773 31.13 30.778z" />
<glyph unicode="&#xe906;" glyph-name="px_erp" d="M845.159 748.111c19.227-19.228 33.517-40.723 42.863-64.495 9.349-23.767 14.020-48.204 14.020-73.307 0-25.105-4.671-49.541-14.020-73.309-9.346-23.768-23.636-45.269-42.863-64.498l-306.855-304.447c-19.225-19.23-42.862-35.257-70.904-48.074s-57.684-20.297-88.931-22.433c-31.247-2.137-63.161 2.136-95.742 12.817-32.583 10.682-62.759 29.912-90.536 57.69-27.237 27.237-46.2 56.752-56.879 88.53-10.681 31.778-14.96 63.427-12.822 94.942 2.141 31.512 9.482 61.156 22.032 88.93 12.555 27.774 28.445 51.274 47.671 70.505l272.405 269.999c4.806 4.803 11.885 6.007 21.23 3.602 9.35-2.398 16.428-6.007 21.232-10.81 4.277-4.813 7.746-11.886 10.419-21.235 2.669-9.348 1.602-16.422-3.207-21.234l-271.601-269.196c-14.424-14.421-26.44-31.251-36.055-50.475-9.612-19.232-15.22-39.792-16.824-61.691-1.6-21.899 1.605-44.069 9.615-66.502 8.008-22.433 22.433-44.060 43.264-64.893 18.692-18.697 39.389-31.913 62.091-39.662 22.696-7.744 45.265-10.946 67.698-9.61 22.433 1.331 43.798 6.271 64.095 14.817 20.298 8.548 37.659 20.028 52.076 34.454l306.055 303.65c14.422 14.418 24.705 29.375 30.846 44.866 6.142 15.487 9.079 30.844 8.814 46.068-0.27 15.224-3.875 30.042-10.817 44.465s-16.557 27.775-28.842 40.058c-22.97 22.433-48.74 32.983-77.316 31.65-28.576-1.338-57.285-16.426-86.127-45.268l-276.409-274.809c-12.284-12.283-18.294-25.904-18.025-40.857 0.264-14.96 5.207-27.246 14.818-36.861 11.75-11.751 25.237-16.555 40.461-14.419s27.642 8.014 37.259 17.628l250.77 249.169c4.806 4.804 11.881 6.008 21.234 3.605 9.344-2.403 16.422-6.011 21.23-10.815 4.804-4.812 8.544-11.885 11.215-21.234 2.669-9.348 1.602-16.423-3.205-21.231l-251.574-249.171c-19.228-19.229-37.654-32.582-55.279-40.054-17.628-7.481-34.184-10.819-49.676-10.022-15.487 0.804-29.909 4.948-43.26 12.42-13.354 7.48-25.64 16.561-36.855 27.243-9.082 8.549-17.224 19.494-24.437 32.846-7.209 13.352-11.348 28.041-12.416 44.070-1.071 16.019 1.732 33.114 8.413 51.271 6.677 18.163 19.629 36.589 38.856 55.285 9.612 9.615 18.16 18.426 25.64 26.439 6.409 6.943 12.418 13.085 18.027 18.426s8.677 8.278 9.21 8.812l223.532 222.731c19.226 19.228 40.193 34.319 62.893 45.268s45.801 17.223 69.303 18.825c23.499 1.606 46.601-1.601 69.301-9.611 22.699-8.010 43.664-21.632 62.891-40.862z" />
<glyph unicode="&#xe907;" glyph-name="px_peizhi" d="M977.067 772.267h-695.467c-21.333-59.733-76.8-98.133-136.533-98.133-81.067 0-145.067 64-145.067 140.8 0 81.067 64 145.067 145.067 145.067 64 0 115.2-38.4 136.533-98.133h699.733c25.6 0 42.667-21.333 42.667-42.667 0-25.6-21.333-46.933-46.933-46.933zM196.267 819.2c0 29.867-25.6 55.467-55.467 55.467-12.8-4.267-25.6-8.533-34.133-21.333-12.8-8.533-17.067-21.333-17.067-34.133 0-29.867 25.6-55.467 55.467-55.467s51.2 25.6 51.2 55.467zM981.333 405.333h-93.867c-17.067-59.733-72.533-98.133-136.533-98.133s-115.2 38.4-136.533 98.133h-567.467c-25.6 0-42.667 21.333-42.667 42.667 0 25.6 21.333 42.667 42.667 42.667h563.2c17.067 59.733 72.533 98.133 136.533 98.133s115.2-38.4 136.533-98.133h98.133c25.6 0 42.667-21.333 42.667-42.667 0-25.6-21.333-42.667-42.667-42.667zM750.933 503.467c-29.867 0-55.467-25.6-55.467-55.467s25.6-55.467 55.467-55.467c29.867 0 55.467 25.6 55.467 55.467-4.267 29.867-25.6 55.467-55.467 55.467zM145.067 221.867c64 0 115.2-38.4 136.533-98.133h699.733c25.6 0 42.667-21.333 46.933-42.667v0c0-25.6-21.333-42.667-42.667-42.667h-704c-21.333-64-76.8-102.4-136.533-102.4-81.067 0-145.067 64-145.067 145.067s64 140.8 145.067 140.8zM89.6 76.8c0-29.867 25.6-55.467 55.467-55.467s55.467 25.6 55.467 55.467c0 29.867-25.6 55.467-55.467 55.467s-55.467-25.6-55.467-55.467z" />
<glyph unicode="&#xe908;" glyph-name="px_reset" d="M567.467 917.333c-247.467 0-452.267-204.8-452.267-452.267h-115.2l170.667-230.4 170.667 226.133h-115.2c0 187.733 153.6 341.333 341.333 341.333s341.333-153.6 341.333-341.333-153.6-341.333-341.333-341.333c-34.133 0-55.467-21.333-55.467-55.467s21.333-55.467 55.467-55.467c251.733 0 456.533 204.8 456.533 456.533s-204.8 452.267-456.533 452.267z" />
<glyph unicode="&#xe909;" glyph-name="px_rili" d="M0 887.467h1024v-72.533h-1024v72.533zM0 665.6h1024v-72.533h-1024v72.533zM217.6 960h72.533v-145.067h-72.533v145.067zM729.6 960h72.533v-145.067h-72.533v145.067zM217.6 230.4h145.067v-72.533h-145.067v72.533zM217.6 448h145.067v-72.533h-145.067v72.533zM657.067 230.4h145.067v-72.533h-145.067v72.533zM657.067 448h145.067v-72.533h-145.067v72.533zM0 8.533h1024v-72.533h-1024v72.533zM0 887.467h72.533v-951.467h-72.533v951.467zM951.467 887.467h72.533v-951.467h-72.533v951.467z" />
<glyph unicode="&#xe90a;" glyph-name="px_search" d="M456.533 960c-251.733 0-456.533-204.8-456.533-456.533s204.8-456.533 456.533-456.533 456.533 204.8 456.533 456.533-200.533 456.533-456.533 456.533zM456.533 149.333c-196.267 0-349.867 157.867-349.867 349.867s157.867 349.867 349.867 349.867 354.133-153.6 354.133-345.6-157.867-354.133-354.133-354.133zM746.667 110.933l187.733-162.133c21.333-17.067 55.467-17.067 76.8 4.267 17.067 21.333 17.067 55.467-4.267 76.8l-187.733 162.133c-21.333 17.067-55.467 17.067-76.8-4.267s-17.067-59.733 4.267-76.8z" />
<glyph unicode="&#xe90b;" glyph-name="px_shuaxin" d="M611.84 795.648c0-46.592-37.888-84.48-84.48-84.48s-84.48 37.888-84.48 84.48 37.888 84.48 84.48 84.48 84.48-37.888 84.48-84.48zM527.36 171.008c-40.96 0-73.728-33.28-73.728-73.728s32.768-74.24 73.728-74.24 73.728 33.28 73.728 73.728-33.28 74.24-73.728 74.24zM876.544 393.728c-29.184 0-52.736 23.552-52.736 52.736s23.552 52.736 52.736 52.736c29.184 0 52.736-23.552 52.736-52.736s-23.552-52.736-52.736-52.736zM262.144 446.464c0 46.592-37.888 84.48-84.48 84.48s-84.48-37.888-84.48-84.48 37.888-84.48 84.48-84.48 84.48 37.888 84.48 84.48zM339.968 753.152c32.768-32.768 32.768-86.528 0-119.296s-86.528-32.768-119.296 0c-32.768 32.768-32.768 86.528 0 119.296s86.016 32.768 119.296 0zM729.6 244.224c-24.576-24.576-24.576-65.024 0-89.6s65.024-24.576 89.6 0c24.576 24.576 24.576 65.024 0 89.6-25.088 24.576-65.024 24.576-89.6 0zM803.84 663.552c-16.384-16.384-43.008-16.384-59.904 0-16.384 16.384-16.384 43.008 0 59.904 16.384 16.384 43.008 16.384 59.904 0 16.896-16.896 16.896-43.52 0-59.904zM339.968 259.072c-32.768 32.768-86.528 32.768-119.296 0s-32.768-86.528 0-119.296c32.768-32.768 86.528-32.768 119.296 0s32.768 86.016 0 119.296z" />
<glyph unicode="&#xe90c;" glyph-name="px_wancheng" d="M856.263 0.901h-688.527c-56.703 0-102.835 46.132-102.835 102.836v688.525c0 56.704 46.132 102.836 102.835 102.836h344.263c22.607 0 40.932-18.326 40.932-40.932s-18.325-40.932-40.932-40.932h-344.263c-11.563 0-20.971-9.408-20.971-20.972v-688.525c0-11.564 9.407-20.972 20.971-20.972h688.527c11.564 0 20.972 9.407 20.972 20.972v299.373c0 22.607 18.325 40.932 40.932 40.932s40.932-18.325 40.932-40.932v-299.373c0-56.704-46.132-102.836-102.836-102.836zM469.681 286.131c0 0 0 0 0 0-10.856 0-21.268 4.313-28.944 11.989l-184.944 184.946c-15.985 15.985-15.985 41.902 0 57.886 15.985 15.986 41.901 15.986 57.887 0l156.001-156.003 379.337 379.337c15.985 15.985 41.901 15.985 57.886 0s15.985-41.901 0-57.886l-408.279-408.28c-7.677-7.676-18.089-11.989-28.944-11.989z" />
<glyph unicode="&#xe90d;" glyph-name="px_xiugai" d="M928.329 635.694c-15.659-1.099-28.090-13.53-29.184-29.090l-0.006-0.099v-590.319c-0.549-7.829-6.765-14.045-14.545-14.592l-0.050-0.003h-801.602c-7.829 0.549-14.045 6.765-14.592 14.545l-0.003 0.050v801.686c0 7.297 7.297 14.595 14.595 14.595h590.404c14.51 0 29.104 14.595 29.104 29.189s-14.679 29.104-29.189 29.104h-590.319c-43.784 0-80.186-29.189-80.186-72.888v-801.602c0-43.784 36.402-80.186 80.186-80.186h801.686c43.784 0 80.186 36.487 80.186 80.186v590.234c-7.297 14.595-21.892 29.189-36.487 29.189zM1015.727 949.054c-14.595 14.595-29.104 14.595-43.699 0l-706.906-706.906c-14.51-14.595-14.51-29.104 0-43.784 7.297-7.212 14.595-7.212 21.892-7.212s14.595 0 21.807 7.212l706.991 706.991c7.212 7.297 7.212 29.104-0.085 43.699z" />
<glyph unicode="&#xe90e;" glyph-name="px_xuanzhong" d="M512 960c-281.6 0-512-230.4-512-512s230.4-512 512-512c281.6 0 512 230.4 512 512s-230.4 512-512 512zM776.533 576l-315.733-315.733c-8.533-8.533-17.067-12.8-25.6-12.8s-21.333 4.267-25.6 12.8l-162.133 162.133c-17.067 17.067-17.067 38.4 0 55.467 12.8 12.8 38.4 12.8 55.467 0l132.267-132.267 285.867 285.867c12.8 12.8 38.4 12.8 55.467 0s17.067-38.4 0-55.467z" />
<glyph unicode="&#xe90f;" glyph-name="px_xuanzhong_no" d="M951.467 448c0 243.2-196.267 439.467-439.467 439.467s-439.467-196.267-439.467-439.467 196.267-439.467 439.467-439.467 439.467 196.267 439.467 439.467zM0 448c0 285.867 226.133 512 512 512s512-226.133 512-512-226.133-512-512-512-512 226.133-512 512z" />
<glyph unicode="&#xe910;" glyph-name="px_user" d="M512 507.733c-123.733 0-226.133 102.4-226.133 226.133s102.4 226.133 226.133 226.133 226.133-102.4 226.133-226.133-102.4-226.133-226.133-226.133zM512 878.933c-81.067 0-145.067-64-145.067-145.067s64-145.067 145.067-145.067 145.067 64 145.067 145.067-64 145.067-145.067 145.067zM93.867-64l-81.067 4.267c17.067 256 234.667 460.8 494.933 460.8s477.867-200.533 494.933-460.8l-72.533-4.267c-17.067 217.6-200.533 388.267-418.133 388.267s-401.067-170.667-418.133-388.267z" />
<glyph unicode="&#xe911;" glyph-name="px_xiugaimima" d="M823.467-55.467h-725.333c-55.467 0-98.133 42.667-98.133 98.133v439.467c0 51.2 42.667 98.133 98.133 98.133h529.067c17.067 0 34.133-17.067 34.133-34.133s-17.067-34.133-34.133-34.133h-529.067c-17.067 0-29.867-12.8-29.867-29.867v-439.467c0-17.067 12.8-29.867 29.867-29.867h725.333c17.067 0 29.867 12.8 29.867 29.867v273.067c0 17.067 17.067 34.133 34.133 34.133s34.133-17.067 34.133-34.133v-273.067c-4.267-55.467-46.933-98.133-98.133-98.133zM503.467 123.733c-8.533 0-17.067 4.267-25.6 8.533-12.8 12.8-12.8 34.133 0 46.933l490.667 486.4c12.8 12.8 34.133 12.8 46.933 0s12.8-34.133 0-46.933l-486.4-486.4c-8.533-8.533-17.067-8.533-25.6-8.533zM140.8 512c-17.067 0-34.133 17.067-34.133 34.133v64c0 187.733 157.867 341.333 354.133 341.333 145.067 0 273.067-85.333 328.533-217.6 8.533-17.067-4.267-34.133-17.067-42.667-17.067-8.533-34.133 4.267-42.667 17.067-42.667 106.667-149.333 174.933-264.533 174.933-157.867 0-285.867-123.733-285.867-273.067v-68.267c-4.267-17.067-21.333-29.867-38.4-29.867z" />
<glyph unicode="&#xe912;" glyph-name="px_zhuxiao" d="M0 460.8c0 12.8 0 29.867 0 42.667 4.267 25.6 8.533 51.2 12.8 76.8 8.533 42.667 25.6 85.333 46.933 128 12.8 25.6 29.867 46.933 46.933 68.267 12.8 12.8 25.6 25.6 34.133 38.4 29.867 29.867 59.733 55.467 93.867 76.8 17.067 8.533 34.133 21.333 51.2 29.867s38.4 0 46.933-17.067c12.8-17.067 8.533-46.933-12.8-55.467-25.6-12.8-51.2-29.867-72.533-46.933s-38.4-34.133-55.467-51.2c-21.333-21.333-38.4-46.933-55.467-76.8-12.8-21.333-21.333-42.667-29.867-68.267-8.533-21.333-12.8-38.4-17.067-59.733-4.267-17.067-4.267-34.133-8.533-51.2 0-17.067 0-29.867 0-46.933 0-25.6 4.267-46.933 8.533-72.533s12.8-51.2 21.333-72.533c12.8-29.867 29.867-59.733 46.933-89.6 17.067-21.333 34.133-42.667 51.2-59.733 25.6-21.333 51.2-42.667 76.8-59.733 29.867-17.067 59.733-34.133 93.867-42.667 21.333-4.267 42.667-8.533 64-12.8 25.6-4.267 55.467-4.267 81.067-4.267 17.067 0 38.4 4.267 55.467 8.533 29.867 4.267 59.733 12.8 89.6 25.6 34.133 12.8 64 29.867 93.867 55.467 12.8 8.533 25.6 21.333 34.133 29.867 29.867 25.6 51.2 55.467 72.533 89.6s34.133 68.267 42.667 102.4c4.267 21.333 8.533 38.4 12.8 59.733 0 8.533 0 17.067 4.267 25.6 0 12.8 0 25.6 0 38.4 0 38.4-4.267 76.8-17.067 110.933-8.533 29.867-21.333 59.733-34.133 85.333s-29.867 51.2-51.2 76.8c-12.8 12.8-25.6 29.867-38.4 38.4-21.333 21.333-46.933 38.4-72.533 55.467-8.533 4.267-12.8 8.533-21.333 12.8s-12.8 12.8-12.8 21.333c-4.267 12.8 0 25.6 8.533 34.133 21.333 12.8 42.667 21.333 55.467 12.8 21.333-12.8 42.667-25.6 64-38.4s38.4-29.867 55.467-46.933c21.333-21.333 38.4-42.667 59.733-64 17.067-25.6 34.133-51.2 46.933-81.067 17.067-34.133 29.867-68.267 38.4-102.4 4.267-17.067 8.533-38.4 8.533-55.467 4.267-29.867 4.267-55.467 4.267-85.333 0-17.067-4.267-34.133-4.267-51.2-4.267-29.867-12.8-64-21.333-93.867-12.8-34.133-25.6-68.267-46.933-98.133-12.8-17.067-21.333-34.133-34.133-51.2-17.067-21.333-34.133-42.667-55.467-59.733-29.867-25.6-64-51.2-98.133-68.267-29.867-17.067-59.733-29.867-89.6-38.4-25.6-8.533-51.2-12.8-76.8-17.067-17.067 0-34.133-4.267-46.933-4.267-17.067 0-34.133 0-51.2 0s-29.867 4.267-46.933 4.267c-21.333 4.267-42.667 8.533-64 12.8s-46.933 12.8-68.267 21.333c-34.133 12.8-64 29.867-93.867 51.2-17.067 12.8-29.867 25.6-46.933 38.4-12.8 8.533-25.6 21.333-34.133 34.133-25.6 25.6-46.933 51.2-64 85.333-8.533 17.067-21.333 34.133-25.6 51.2-12.8 29.867-25.6 64-34.133 98.133-4.267 17.067-8.533 38.4-8.533 55.467-12.8 8.533-12.8 29.867-12.8 46.933 0 0 0 0 0 0zM550.4 652.8c0-85.333 0-170.667 0-256 0-21.333-17.067-34.133-38.4-38.4-17.067 0-29.867 4.267-38.4 17.067-4.267 8.533-8.533 17.067-8.533 25.6 0 166.4 0 328.533 0 494.933 0 17.067 8.533 34.133 25.6 42.667 25.6 12.8 55.467-8.533 55.467-34.133 4.267-85.333 4.267-170.667 4.267-251.733z" />
<glyph unicode="&#xe913;" glyph-name="baocun" d="M819.814-8.064h-615.629c-84.352 0-152.986 68.582-152.986 152.96v606.182c0 84.378 68.634 153.011 152.986 153.011h615.654c84.326-0.026 152.96-68.634 152.96-153.011v-606.182c0-84.378-68.608-152.96-152.986-152.96v0zM204.186 844.365c-51.456 0-93.312-41.83-93.312-93.312v-606.157c0-51.456 41.856-93.338 93.312-93.338h615.654c51.456 0 93.312 41.882 93.312 93.338v606.182c0 51.482-41.856 93.312-93.312 93.312l-615.654-0.026zM807.040 446.566h-590.080v457.498h590.106v-457.498h-0.026zM276.608 506.266h470.784v338.099h-470.784v-338.099zM599.859 756.557h59.648v-198.938h-59.648v198.938z" />
<glyph unicode="&#xe914;" glyph-name="canshudingyi" horiz-adv-x="1034" d="M519.518 672.117c-112.029 0-203.052-90.061-203.052-200.867s91.124-200.867 203.052-200.867c11.203 0 22.705 1.18 36.309 3.54 15.804 2.852 26.307 17.796 23.407 33.43-2.902 15.632-17.904 26.054-33.709 23.105-10.003-1.769-18.306-2.655-25.905-2.655-80.020 0-145.136 64.302-145.136 143.448 0 79.050 65.017 143.448 144.937 143.448 80.020 0 145.038-64.302 145.038-143.448 0-7.571-0.8-15.632-2.701-25.564-2.902-15.632 7.603-30.579 23.407-33.43s30.908 7.473 33.708 23.105c2.5 13.372 3.601 24.776 3.601 35.886 0.101 110.806-91.023 200.867-202.951 200.867v0l-0.005 0.003zM1024.747 566.621c-1.8 9.44-9.102 16.91-18.605 19.074-53.714 12.191-98.324 44.736-125.733 91.633-27.306 46.8-33.509 101.269-17.505 153.279 2.902 9.144 0 19.172-7.403 25.463-49.312 42.081-105.525 74.231-167.241 95.468-9.102 3.145-19.305 0.689-25.905-6.391-37.41-39.72-88.223-61.646-142.837-61.646s-105.427 21.925-142.936 61.744c-6.601 6.98-16.805 9.537-26.007 6.391-61.616-21.334-117.93-53.387-167.143-95.567-7.302-6.291-10.202-16.223-7.401-25.367 16.106-52.011 9.902-106.48-17.404-153.279-27.306-46.9-72.018-79.444-125.633-91.633-9.604-2.262-16.906-9.733-18.704-19.172-6.202-32.249-9.302-64.302-9.302-95.371s3.1-63.121 9.302-95.371c1.8-9.44 9.102-16.91 18.605-19.073 53.714-12.191 98.324-44.736 125.733-91.633 27.306-46.8 33.509-101.269 17.404-153.279-2.801-9.144 0.1-19.074 7.403-25.463 49.312-42.081 105.528-74.231 167.143-95.468 2.601-0.887 5.301-1.377 8.002-1.377 6.701 0 13.204 2.655 17.904 7.67 37.508 39.819 88.323 61.744 142.936 61.744 54.615 0 105.427-21.925 142.936-61.744 6.601-7.079 16.705-9.44 26.007-6.391 61.616 21.238 117.83 53.387 167.143 95.468 7.302 6.291 10.202 16.223 7.403 25.463-16.106 52.011-9.902 106.48 17.505 153.279 27.306 46.9 71.917 79.444 125.733 91.633 9.502 2.164 16.705 9.636 18.605 19.073 6.202 32.249 9.302 64.399 9.302 95.371 0 31.069-3.1 63.219-9.302 95.468v0l-0.004 0.004zM819.997 299.584c-29.207-50.045-37.909-109.726-24.707-166.062-35.609-28.514-75.219-51.127-118.131-67.447-43.012 40.015-98.425 61.843-157.741 61.843-58.413 0-115.031-22.418-157.741-61.843-42.911 16.321-82.521 38.936-118.131 67.447 13.604 56.731 5.001 115.23-24.707 166.062-29.207 50.144-77.219 87.407-133.233 104.218-3.701 22.811-5.502 45.424-5.502 67.447 0 21.925 1.8 44.54 5.502 67.447 56.015 16.714 103.926 54.077 133.233 104.218 29.207 50.045 38.010 109.726 24.707 166.064 35.609 28.514 75.219 51.127 118.131 67.448 42.61-39.525 99.325-61.943 157.741-61.943 59.415 0 114.728 21.828 157.741 61.843 42.911-16.321 82.521-38.936 118.131-67.447-13.303-56.238-4.601-116.017 24.608-166.062 29.207-50.144 77.219-87.407 133.233-104.218 3.701-22.909 5.502-45.522 5.502-67.447 0.199-21.828-1.7-44.441-5.402-67.348-56.015-16.815-104.026-54.079-133.233-104.221z" />
<glyph unicode="&#xe915;" glyph-name="chakan" d="M1011.154-51.377c-8.139-8.144-18.955-12.623-30.457-12.623-11.507 0-22.323 4.479-30.457 12.618l-136.414 136.476c-45.045-35.11-100.41-54.233-158.006-54.233-68.745 0-133.375 26.781-181.988 75.415-48.608 48.633-75.379 113.299-75.379 182.075 0 68.781 26.766 133.441 75.379 182.075 48.608 48.639 113.237 75.42 181.988 75.42 68.745 0 133.375-26.781 181.988-75.42 48.608-48.633 75.379-113.294 75.379-182.075 0-50.154-14.159-98.060-41.104-139.645l139.072-139.144c16.789-16.8 16.789-44.134-0.001-60.939zM655.82 117.046c45.731 0 88.729 17.818 121.069 50.174s50.149 75.374 50.149 121.131c0 45.762-17.808 88.78-50.149 121.131-32.34 32.356-75.338 50.174-121.069 50.174-45.736 0-88.734-17.818-121.074-50.174s-50.149-75.369-50.149-121.131c0-45.757 17.808-88.775 50.149-121.131s75.337-50.174 121.074-50.174zM765.965 873.815h-679.563v-782.266h263.212v-86.19h-269.841c-43.847 0-79.52 35.693-79.52 79.561v795.524c0 43.868 35.673 79.556 79.52 79.556h692.821c43.847 0 79.515-35.688 79.515-79.556v-299.586h-86.144v292.957zM311.807 216.145h-104.346c-23.751 0-43.074 19.334-43.074 43.095s19.323 43.095 43.074 43.095h104.346c23.751 0 43.074-19.334 43.074-43.095s-19.322-43.095-43.074-43.095zM164.387 693.568c0 23.761 19.323 43.095 43.074 43.095h387.829c23.751 0 43.074-19.334 43.074-43.095s-19.323-43.095-43.074-43.095h-387.829c-23.751 0-43.074 19.334-43.074 43.095zM164.387 469.279c0 23.761 19.323 43.095 43.074 43.095h152.795c23.746 0 43.069-19.328 43.074-43.090 0-23.766-19.323-43.1-43.074-43.1h-152.795c-23.751 0-43.074 19.333-43.074 43.095z" />
<glyph unicode="&#xe916;" glyph-name="chexiao" d="M958.358 162.255c0-14.835 0-29.669 0-44.504-4.714-10.056-10.996-18.859-26.49-15.893-16.193 3.099-21.873 39.583-29.669 56.158-65.305 138.872-201.518 204.385-394.167 211.92 0-34.291 0-68.665 0-104.9 0-31.171 8.438-84.401-19.073-86.887-10.355-0.935-21.872 8.488-30.728 14.835-119.236 85.44-230.967 167.19-348.607 253.242-13.050 9.546-47.682 27.131-47.682 45.563 0 11.239 11.026 18.779 20.133 25.43 128.416 93.804 250.572 180.777 377.215 274.435 8.786 6.497 19.964 16.691 31.787 14.834 25.402-3.991 16.954-61.533 16.954-92.185 0-38.935 0-74.126 0-110.198 275.049-22.334 432.761-162.031 450.327-441.85zM119.16 490.728c111.743-79.46 226.129-163.235 336.951-242.647 2.637-1.89 5.097-7.374 9.536-5.298 0 35.675 0 80.402 0 117.615 0 12.413-2.357 29.533 1.060 39.206 7.437 21.056 59.344 12.615 85.827 10.595 158.402-12.080 276.244-72.719 348.607-167.416 2.833-3.706 4.511-11.022 7.417-8.477-21.399 111.728-66.205 185.304-139.867 240.529-65.845 49.363-143.252 77.964-246.886 85.827-11.78 0.894-34.676-1.308-44.503 3.178-14.864 6.788-11.656 27.801-11.656 51.919 0 40.252 0.817 98.062-1.059 128.211-114.584-84.967-231.968-167.147-345.427-253.243z" />
<glyph unicode="&#xe917;" glyph-name="close" d="M0 960h146.286v-146.286h-146.286v146.286zM146.286 813.714h146.286v-146.286h-146.286v146.286zM292.571 667.429h146.286v-146.286h-146.286v146.286zM438.857 521.143h146.286v-146.286h-146.286v146.286zM585.143 374.857h146.286v-146.286h-146.286v146.286zM731.429 228.571h146.286v-146.286h-146.286v146.286zM877.714 82.286h146.286v-146.286h-146.286v146.286zM0-64v146.286h146.286v-146.286h-146.286zM146.286 82.286v146.286h146.286v-146.286h-146.286zM292.571 228.571v146.286h146.286v-146.286h-146.286zM585.143 521.143v146.286h146.286v-146.286h-146.286zM731.429 667.429v146.286h146.286v-146.286h-146.286zM877.714 813.714v146.286h146.286v-146.286h-146.286z" />
<glyph unicode="&#xe918;" glyph-name="dayin" d="M844.749 698.124h-55.615v194.647h-556.132v-194.646h-55.613c-61.343 0-111.227-49.883-111.227-111.226v-361.487h166.838v-222.452h556.133v222.452h166.84v361.486c0 61.344-49.884 111.226-111.225 111.226zM288.615 837.158h444.907v-139.033h-444.907v139.033zM733.522 58.573h-444.907v250.26h444.907v-250.26zM900.36 281.025h-111.226v83.42h-556.132v-83.42h-111.227v305.873c0 30.658 24.955 55.614 55.614 55.614h667.36c30.656 0 55.612-24.956 55.612-55.614v-305.872zM511.067 559.093h-250.257c-15.37 0-27.807-12.438-27.807-27.807s12.438-27.807 27.807-27.807h250.26c15.368 0 27.806 12.438 27.806 27.807s-12.439 27.807-27.808 27.807z" />
<glyph unicode="&#xe919;" glyph-name="fuzhi" d="M906 135.175v93.865c26.306 22.378 43 55.717 43 92.96v443c0 67.379-54.621 122-122 122h-444c-38.179 0-72.256-17.541-94.627-45h-91.443c15.364 65.349 74.032 114 144.070 114h530c81.739 0 148-66.261 148-148v-529c0-69.679-48.156-128.1-113-143.825zM833 620v-529c0-81.739-66.261-148-148-148h-530c-81.737 0-148 66.263-148 148v529c0 81.738 66.263 148 148 148h530c81.739 0 148-66.261 148-148zM197 699c-67.379 0-122-54.621-122-122v-443c0-67.379 54.621-122 122-122h444c67.379 0 122 54.621 122 122v443c0 67.379-54.621 122-122 122h-444zM237 391h357v-59h-357v59zM237 575h357v-59h-357v59zM494 147h-257v59h257v-59z" />
<glyph unicode="&#xe91a;" glyph-name="lefticon_18px_baobiao" d="M89.6-51.2h85.333v260.267h-85.333v-260.267zM349.867-51.2h85.333v384h-85.333c0 0 0-384 0-384zM640-51.2h85.333v477.867h-85.333c0 0 0-477.867 0-477.867zM913.067-51.2h76.8v622.933h-76.8c0 0 0-622.933 0-622.933zM964.267 674.133l59.733 273.067-315.733-64 98.133-76.8-273.067-238.933-136.533 102.4-396.8-349.867 59.733-46.933 337.067 298.667 136.533-102.4 328.533 290.133 102.4-85.333z" />
<glyph unicode="&#xe91b;" glyph-name="lefticon_18px_cangchu" d="M1011.2 580.267c0 0-469.333 320-469.333 320-29.867 21.333-29.867 21.333-59.733 0l-469.333-320c-17.067-8.533-17.067-29.867-4.267-46.933s34.133-21.333 46.933-12.8l34.133 21.333v-529.067c0-21.333 17.067-38.4 38.4-38.4s38.4 17.067 38.4 38.4v580.267l345.6 243.2 354.133-243.2v-576c0-21.333 17.067-38.4 38.4-38.4s38.4 17.067 38.4 38.4v520.533l25.6-17.067c17.067-8.533 34.133-4.267 46.933 12.8s8.533 38.4-4.267 46.933v0zM320 307.2c0-8.533 8.533-17.067 17.067-17.067 0 0 0 0 0 0h354.133c8.533 0 17.067 4.267 17.067 17.067v29.867c0 8.533-8.533 17.067-17.067 17.067 0 0 0 0 0 0h-354.133c-8.533 0-17.067-4.267-17.067-17.067v-29.867zM320 187.733c0-8.533 8.533-17.067 17.067-17.067 0 0 0 0 0 0h354.133c8.533 0 17.067 4.267 17.067 17.067v29.867c0 8.533-8.533 17.067-17.067 17.067 0 0 0 0 0 0h-354.133c-8.533 0-17.067-4.267-17.067-17.067v-29.867zM337.067 413.867h354.133c8.533 0 17.067 4.267 17.067 17.067v29.867c0 8.533-8.533 17.067-17.067 17.067 0 0 0 0 0 0h-354.133c-8.533 0-17.067-4.267-17.067-17.067v-29.867c0-8.533 8.533-17.067 17.067-17.067zM320 72.533c0-8.533 8.533-17.067 17.067-17.067 0 0 0 0 0 0h354.133c8.533 0 17.067 4.267 17.067 17.067v34.133c0 8.533-8.533 17.067-17.067 17.067 0 0 0 0 0 0h-354.133c-8.533 0-17.067-4.267-17.067-17.067v-34.133z" />
<glyph unicode="&#xe91c;" glyph-name="lefticon_18px_erji" d="M695.467 81.067h-512c-59.733 0-110.933 51.2-110.933 110.933v657.067c0 59.733 51.2 110.933 110.933 110.933h512c59.733 0 110.933-51.2 110.933-110.933v-657.067c0-59.733-51.2-110.933-110.933-110.933zM183.467 887.467c-21.333 0-38.4-17.067-38.4-38.4v-657.067c0-21.333 17.067-38.4 38.4-38.4h512c21.333 0 38.4 17.067 38.4 38.4v657.067c0 21.333-17.067 38.4-38.4 38.4h-512zM840.533-64h-546.133c-21.333 0-38.4 17.067-38.4 38.4s17.067 38.4 38.4 38.4h550.4c21.333 0 38.4 17.067 38.4 38.4v691.2c0 21.333 17.067 38.4 38.4 38.4s38.4-17.067 38.4-38.4v-695.467c-8.533-59.733-59.733-110.933-119.467-110.933zM550.4 665.6h-294.4c-21.333 0-38.4 17.067-38.4 38.4s17.067 38.4 38.4 38.4h294.4c21.333 0 38.4-17.067 38.4-38.4s-21.333-38.4-38.4-38.4zM622.933 486.4h-366.933c-21.333 0-38.4 17.067-38.4 38.4s17.067 34.133 38.4 34.133h366.933c21.333 0 38.4-17.067 38.4-38.4s-21.333-34.133-38.4-34.133zM622.933 302.933h-366.933c-21.333 0-38.4 17.067-38.4 38.4s17.067 38.4 38.4 38.4h366.933c21.333 0 38.4-17.067 38.4-38.4-4.267-21.333-21.333-38.4-38.4-38.4z" />
<glyph unicode="&#xe91d;" glyph-name="lefticon_18px_esop" d="M746.667 853.333c-68.267 68.267-157.867 106.667-256 106.667s-187.733-38.4-256-106.667-106.667-157.867-106.667-256c0-64 17.067-128 51.2-183.467 29.867-46.933 68.267-89.6 115.2-119.467v-174.933c0-46.933 38.4-81.067 81.067-81.067h226.133c46.933 0 81.067 38.4 81.067 81.067v174.933c46.933 29.867 85.333 72.533 115.2 119.467 34.133 55.467 55.467 119.467 55.467 183.467 0 98.133-38.4 187.733-106.667 256v0zM605.867 102.4h-226.133c-12.8 0-21.333 8.533-21.333 21.333v72.533h264.533v-72.533c0-12.8-8.533-21.333-17.067-21.333v0zM746.667 448c-25.6-42.667-64-81.067-106.667-106.667l-17.067-8.533v-72.533h-264.533v72.533l-17.067 8.533c-42.667 25.6-81.067 64-106.667 106.667-25.6 46.933-42.667 98.133-42.667 149.333 0 81.067 29.867 153.6 85.333 209.067s132.267 85.333 209.067 85.333c81.067 0 153.6-29.867 209.067-85.333s85.333-132.267 85.333-209.067c8.533-51.2-8.533-102.4-34.133-149.333v0zM601.6-4.267h-221.867c-17.067 0-29.867-12.8-29.867-29.867s12.8-29.867 29.867-29.867h217.6c17.067 0 29.867 12.8 29.867 29.867s-8.533 29.867-25.6 29.867z" />
<glyph unicode="&#xe91e;" glyph-name="lefticon_18px_jiankong" d="M512 64c-256 0-512 320-512 384s256 384 512 384c256 0 512-320 512-384s-256-384-512-384zM512 768c-221.867 0-448-268.8-448-320 0-55.467 221.867-320 448-320s448 268.8 448 320c0 51.2-226.133 320-448 320zM512 285.867c-89.6 0-157.867 72.533-157.867 162.133s72.533 157.867 157.867 157.867c89.6 0 157.867-72.533 157.867-157.867 4.267-89.6-68.267-162.133-157.867-162.133zM512 541.867c-51.2 0-93.867-42.667-93.867-93.867s42.667-93.867 93.867-93.867 93.867 42.667 93.867 93.867c4.267 51.2-42.667 93.867-93.867 93.867z" />
<glyph unicode="&#xe91f;" glyph-name="lefticon_18px_jihua" d="M785.067-68.267h-622.933c-55.467 0-102.4 51.2-102.4 110.933v733.867c0 59.733 46.933 110.933 102.4 110.933h482.133c17.067 0 34.133-17.067 34.133-38.4s-17.067-38.4-34.133-38.4h-482.133c-21.333 0-34.133-17.067-34.133-34.133v-733.867c0-21.333 17.067-38.4 34.133-38.4h622.933c17.067 0 34.133 17.067 34.133 38.4v584.533c0 21.333 17.067 38.4 34.133 38.4s34.133-17.067 34.133-38.4v-584.533c0-59.733-46.933-110.933-102.4-110.933zM580.267 520.533c-8.533 0-17.067 4.267-25.6 12.8-12.8 12.8-12.8 38.4 0 51.2l345.6 362.667c12.8 12.8 34.133 12.8 46.933 0s12.8-38.4 0-51.2l-345.6-362.667c-4.267-12.8-12.8-12.8-21.333-12.8zM439.467 520.533h-209.067c-17.067 0-34.133 12.8-34.133 34.133s17.067 38.4 34.133 38.4h209.067c17.067 0 34.133-17.067 34.133-38.4s-17.067-34.133-34.133-34.133zM644.267 298.667h-413.867c-17.067 0-34.133 17.067-34.133 38.4s17.067 38.4 34.133 38.4h413.867c17.067 0 34.133-17.067 34.133-38.4s-12.8-38.4-34.133-38.4z" />
<glyph unicode="&#xe920;" glyph-name="lefticon_18px_menu" d="M0 960h204.8v-204.8h-204.8v204.8zM409.6 960h204.8v-204.8h-204.8v204.8zM819.2 960h204.8v-204.8h-204.8v204.8zM0 550.4h204.8v-204.8h-204.8v204.8zM409.6 550.4h204.8v-204.8h-204.8v204.8zM819.2 550.4h204.8v-204.8h-204.8v204.8zM0 140.8h204.8v-204.8h-204.8v204.8zM409.6 140.8h204.8v-204.8h-204.8v204.8zM819.2 140.8h204.8v-204.8h-204.8v204.8z" />
<glyph unicode="&#xe921;" glyph-name="lefticon_18px_rizhi" d="M840.533 849.067h-153.6v72.533c0 21.333-17.067 38.4-38.4 38.4s-38.4-17.067-38.4-38.4v-72.533h-213.333v72.533c4.267 21.333-8.533 38.4-29.867 38.4s-38.4-17.067-38.4-38.4v-72.533h-153.6c-46.933 0-89.6-38.4-89.6-89.6v-738.133c0-46.933 42.667-85.333 89.6-85.333h665.6c46.933 0 89.6 38.4 89.6 89.6v733.867c0 51.2-38.4 89.6-89.6 89.6zM857.6 25.6c0-8.533-8.533-12.8-12.8-12.8h-669.867c-8.533 0-12.8 8.533-12.8 12.8v733.867c0 8.533 8.533 12.8 12.8 12.8h153.6v-72.533c0-21.333 17.067-38.4 38.4-38.4s38.4 17.067 38.4 38.4v76.8h213.333v-72.533c0-21.333 17.067-38.4 38.4-38.4s38.4 17.067 38.4 38.4v72.533h153.6c8.533 0 12.8-8.533 12.8-12.8-4.267-4.267-4.267-738.133-4.267-738.133zM699.733 520.533h-379.733c-17.067 0-29.867-12.8-29.867-29.867s12.8-29.867 29.867-29.867h379.733c17.067 0 29.867 12.8 29.867 29.867s-17.067 29.867-29.867 29.867zM699.733 345.6h-379.733c-17.067 0-29.867-12.8-29.867-29.867s12.8-29.867 29.867-29.867h379.733c17.067 0 29.867 12.8 29.867 29.867s-17.067 29.867-29.867 29.867z" />
<glyph unicode="&#xe922;" glyph-name="lefticon_18px_shebei" d="M832-64c-102.4 0-187.733 81.067-187.733 187.733l-290.133 290.133c-17.067 17.067-25.6 34.133-29.867 55.467l-93.867-29.867c-34.133-12.8-81.067 0-106.667 25.6l-93.867 93.867c-25.6 25.6-38.4 68.267-25.6 102.4l21.333 59.733c8.533 21.333 21.333 34.133 38.4 38.4 4.267 0 8.533 0 12.8 0 8.533 0 25.6-4.267 38.4-17.067l64-64c8.533-8.533 25.6-8.533 38.4 0l64 68.267c8.533 8.533 8.533 25.6 0 38.4l-64 59.733c-17.067 17.067-21.333 34.133-17.067 51.2s17.067 29.867 38.4 38.4l59.733 21.333c34.133 12.8 81.067 0 106.667-25.6l93.867-98.133c25.6-25.6 34.133-72.533 25.6-106.667l-29.867-93.867c17.067 0 38.4-12.8 51.2-25.6l290.133-290.133c102.4 0 187.733-85.333 187.733-187.733 0-106.667-85.333-192-192-192zM405.333 554.667l-17.067-51.2c-4.267-17.067 0-34.133 8.533-46.933l311.467-311.467v-17.067c0 0 0-4.267 0-4.267 0-68.267 55.467-128 128-128 68.267 0 128 55.467 128 128 0 68.267-55.467 128-128 128 0 0-4.267 0-4.267 0h-17.067l-311.467 311.467c-12.8 12.8-29.867 17.067-46.933 8.533l-51.2-17.067zM81.067 686.933l-17.067-42.667c-4.267-12.8 0-34.133 8.533-38.4l98.133-102.4c4.267-4.267 17.067-12.8 29.867-12.8 4.267 0 8.533 0 8.533 0l187.733 64 68.267 192c4.267 12.8 0 29.867-8.533 38.4l-98.133 102.4c-4.267 4.267-17.067 8.533-34.133 8.533-4.267 0-8.533 0-8.533 0l-42.667-17.067 51.2-51.2c34.133-34.133 34.133-89.6 0-123.733l-68.267-68.267c-17.067-17.067-38.4-25.6-59.733-25.6-25.6 0-46.933 8.533-64 25.6l-51.2 51.2zM832 29.867c-51.2 0-98.133 42.667-98.133 98.133 0 25.6 8.533 51.2 29.867 68.267 17.067 17.067 42.667 29.867 68.267 29.867 51.2 0 98.133-42.667 98.133-98.133s-42.667-98.133-98.133-98.133zM832 157.867c-8.533 0-17.067-4.267-25.6-8.533-4.267-4.267-8.533-12.8-8.533-25.6 0-17.067 17.067-34.133 34.133-34.133s34.133 17.067 34.133 34.133c0 21.333-12.8 34.133-34.133 34.133z" />
<glyph unicode="&#xe923;" glyph-name="lefticon_18px_shujuku" d="M168.229 71.461c0.153-0.002 0.334-0.003 0.515-0.003 23.712 0 42.935 19.223 42.935 42.935 0 0.181-0.001 0.362-0.003 0.543v-0.027c0.001 0.131 0.002 0.286 0.002 0.441 0 23.712-19.223 42.935-42.935 42.935-0.155 0-0.31-0.001-0.465-0.002h0.024c-0.153 0.002-0.333 0.003-0.514 0.003-23.712 0-42.935-19.223-42.935-42.935 0-0.155 0.001-0.311 0.002-0.466v0.024c0-24.357 19.090-43.447 43.447-43.447zM155.648 114.907c0.309 6.846 5.801 12.312 12.629 12.58l0.025 0.001c6.821-0.306 12.274-5.759 12.58-12.552l0.001-0.028c-0.268-6.853-5.735-12.345-12.552-12.653l-0.028-0.001c-6.877 0.271-12.383 5.777-12.653 12.629l-0.001 0.025zM168.302 810.789c-0.153 0.002-0.333 0.003-0.514 0.003-23.712 0-42.935-19.223-42.935-42.935 0-0.155 0.001-0.311 0.002-0.466v0.024c0-24.283 19.090-43.374 43.447-43.374 0.131-0.001 0.286-0.002 0.441-0.002 23.712 0 42.935 19.223 42.935 42.935 0 0.155-0.001 0.31-0.002 0.465v-0.024c0.001 0.131 0.002 0.286 0.002 0.441 0 23.712-19.223 42.935-42.935 42.935-0.155 0-0.31-0.001-0.465-0.002h0.024zM180.882 767.415c-0.306-6.821-5.759-12.274-12.552-12.58l-0.028-0.001c-6.853 0.268-12.345 5.735-12.653 12.552l-0.001 0.028c0.309 6.846 5.801 12.312 12.629 12.58l0.025 0.001c6.821-0.306 12.274-5.759 12.58-12.552l0.001-0.028zM168.302 489.691c-0.153 0.002-0.333 0.003-0.514 0.003-23.712 0-42.935-19.223-42.935-42.935 0-0.155 0.001-0.311 0.002-0.466v0.024c0-24.283 19.090-43.374 43.447-43.374 0.131-0.001 0.286-0.002 0.441-0.002 23.712 0 42.935 19.223 42.935 42.935 0 0.155-0.001 0.31-0.002 0.465v-0.024c0.001 0.131 0.002 0.286 0.002 0.441 0 23.712-19.223 42.935-42.935 42.935-0.155 0-0.31-0.001-0.465-0.002h0.024zM180.882 446.318c-0.306-6.821-5.759-12.274-12.552-12.58l-0.028-0.001c-6.853 0.268-12.345 5.735-12.653 12.552l-0.001 0.028c0.271 6.877 5.777 12.383 12.629 12.653l0.025 0.001c6.846-0.309 12.312-5.801 12.58-12.629l0.001-0.025zM943.397 958.83h-863.086c-43.886 0-79.726-35.767-79.726-79.726v-862.939c0-43.959 35.84-79.726 79.726-79.726h862.939c43.959 0 79.726 35.767 79.726 79.726v862.939c0 0 0 0 0 0 0 43.98-35.611 79.642-79.571 79.726h-0.008zM57.49 270.263h908.727v-239.689c0 0 0 0 0 0 0-22.394-18.133-40.553-40.517-40.594h-827.689c-22.42 0-40.594 18.175-40.594 40.594v0 239.616zM57.49 330.533v253.806h908.727v-254.025l-908.727 0.146zM966.217 644.608h-908.727v224.256c0 20.041 16.238 36.279 36.279 36.279h831.927c22.382 0 40.521-18.213 40.521-40.594v-219.941z" />
<glyph unicode="&#xe924;" glyph-name="lefticon_18px_xianbian" d="M46.933 691.2l443.733-251.733c8.533-4.267 17.067-4.267 25.6 0l443.733 251.733c17.067 8.533 17.067 34.133 0 42.667l-448 221.867c-8.533 4.267-17.067 4.267-21.333 0l-443.733-217.6c-17.067-12.8-17.067-34.133 0-46.933zM72.533 733.867v-42.667l439.467 221.867h-21.333l443.733-221.867v42.667l-443.733-251.733h21.333c0 4.267-439.467 251.733-439.467 251.733zM477.867 443.733v-482.133c0-21.333 21.333-29.867 38.4-21.333l473.6 264.533c8.533 4.267 12.8 12.8 12.8 21.333v324.267c0 12.8-12.8 25.6-25.6 25.6s-25.6-12.8-25.6-25.6v-324.267l12.8 21.333-473.6-264.533 38.4-21.333v482.133c0 12.8-12.8 25.6-25.6 25.6-17.067 0-25.6-12.8-25.6-25.6zM516.267-17.067l-443.733 264.533 12.8-21.333v473.6c0 12.8-12.8 25.6-25.6 25.6s-25.6-12.8-25.6-25.6v-473.6c0-8.533 4.267-17.067 12.8-21.333l443.733-264.533c12.8-8.533 25.6-4.267 34.133 8.533 4.267 12.8 0 25.6-8.533 34.133zM162.133 499.2l149.333-89.6c12.8-8.533 25.6-4.267 34.133 8.533s4.267 25.6-8.533 34.133l-145.067 93.867c-12.8 4.267-29.867 0-38.4-8.533-4.267-12.8 0-29.867 8.533-38.4z" />
<glyph unicode="&#xe925;" glyph-name="lefticon_18px_xitong" d="M947.2 930.133h-870.4c-42.667 0-76.8-34.133-76.8-72.533v-631.467c0-42.667 34.133-76.8 76.8-76.8h358.4v-136.533h-115.2c-17.067 0-25.6-12.8-25.6-25.6 0-17.067 12.8-25.6 25.6-25.6h388.267c17.067 0 25.6 12.8 25.6 25.6 0 17.067-12.8 25.6-25.6 25.6h-119.467v136.533h358.4c42.667 0 76.8 34.133 76.8 76.8v631.467c0 38.4-34.133 72.533-76.8 72.533zM76.8 874.667h870.4c12.8 0 21.333-8.533 21.333-21.333v-503.467h-913.067v507.733c0 8.533 8.533 17.067 21.333 17.067zM533.333 12.8h-42.667v136.533h42.667v-136.533zM947.2 204.8h-870.4c-12.8 0-21.333 8.533-21.333 21.333v68.267h913.067v-68.267c0-12.8-8.533-21.333-21.333-21.333z" />
<glyph unicode="&#xe926;" glyph-name="lefticon_18px_yujing" d="M1006.933 618.667l-110.933-64-34.133 59.733 106.667 64c17.067 8.533 38.4 4.267 46.933-12.8 12.8-17.067 8.533-38.4-8.533-46.933zM789.333 354.133c0 153.6-123.733 277.333-277.333 277.333s-277.333-123.733-277.333-277.333v-345.6h-72.533v345.6c0 192 157.867 349.867 349.867 349.867s349.867-157.867 349.867-349.867v-345.6h-72.533v345.6zM755.2 721.067l-59.733 34.133 64 110.933c8.533 17.067 29.867 21.333 46.933 12.8s21.333-29.867 12.8-46.933c-4.267 0-64-110.933-64-110.933zM473.6 925.867c0 17.067 17.067 34.133 38.4 34.133s38.4-17.067 38.4-34.133v-123.733h-72.533c-4.267 0-4.267 123.733-4.267 123.733zM204.8 832c-8.533 17.067 0 38.4 12.8 46.933 17.067 8.533 38.4 4.267 46.933-12.8l64-110.933-59.733-34.133c0 0-64 110.933-64 110.933zM17.067 618.667c-17.067 8.533-21.333 29.867-12.8 46.933s29.867 21.333 46.933 12.8l106.667-64-29.867-59.733c0 0-110.933 64-110.933 64zM469.333 64l34.133 209.067h-140.8l174.933 281.6-34.133-209.067h136.533l-170.667-281.6zM38.4 8.533h947.2c21.333 0 38.4-17.067 38.4-38.4s-17.067-38.4-38.4-38.4h-947.2c-21.333 4.267-38.4 21.333-38.4 42.667s17.067 34.133 38.4 34.133z" />
<glyph unicode="&#xe927;" glyph-name="lefticon_18px_zhiliang" d="M742.4 571.733c-17.067 17.067-42.667 17.067-59.733 0l-204.8-209.067-89.6 89.6c-17.067 17.067-42.667 17.067-59.733 0s-17.067-42.667 0-59.733l119.467-119.467c8.533-8.533 21.333-12.8 29.867-12.8s21.333 4.267 29.867 12.8l238.933 238.933c12.8 12.8 12.8 42.667-4.267 59.733zM921.6 750.933c-196.267 12.8-337.067 136.533-371.2 187.733-12.8 17.067-25.6 21.333-38.4 21.333s-25.6-4.267-34.133-21.333c-34.133-55.467-174.933-179.2-371.2-187.733-21.333 0-42.667-21.333-42.667-42.667-4.267-409.6 145.067-674.133 435.2-772.267 4.267 0 8.533-4.267 12.8-4.267s8.533 0 12.8 4.267c285.867 98.133 435.2 362.667 435.2 772.267 4.267 25.6-17.067 42.667-38.4 42.667zM512 21.333c-234.667 85.333-358.4 302.933-366.933 648.533 170.667 21.333 302.933 115.2 366.933 183.467 64-68.267 192-162.133 366.933-183.467-8.533-345.6-132.267-563.2-366.933-648.533z" />
<glyph unicode="&#xe928;" glyph-name="lefticon_18px_zhixing" d="M665.6-64c-17.067 0-38.4 8.533-46.933 21.333-17.067 17.067-68.267 68.267-106.667 68.267-42.667 0-93.867-46.933-106.667-64-12.8-12.8-29.867-21.333-46.933-21.333-8.533 0-17.067 0-25.6 4.267v0l-123.733 72.533c-21.333 17.067-29.867 51.2-21.333 76.8 0 0 12.8 29.867 12.8 55.467 0 76.8-59.733 140.8-132.267 140.8h-17.067c-21.333 0-38.4 21.333-42.667 51.2 0 4.267-8.533 59.733-8.533 106.667s8.533 102.4 12.8 106.667c4.267 29.867 21.333 51.2 42.667 51.2h4.267c72.533 0 132.267 64 132.267 140.8 0 25.6-12.8 55.467-12.8 55.467-8.533 25.6 0 55.467 21.333 72.533v0l132.267 76.8c8.533 8.533 17.067 8.533 25.6 8.533 17.067 0 38.4-8.533 46.933-21.333 17.067-17.067 68.267-64 106.667-64s89.6 42.667 106.667 59.733c12.8 17.067 29.867 25.6 46.933 25.6 8.533 0 17.067 0 25.6-4.267v0l128-76.8c21.333-17.067 29.867-51.2 21.333-76.8 0 0-12.8-29.867-12.8-55.467 0-76.8 59.733-140.8 132.267-140.8h4.267c21.333 0 38.4-21.333 42.667-51.2 0-4.267 12.8-59.733 12.8-106.667s-8.533-102.4-12.8-106.667c-4.267-29.867-21.333-51.2-42.667-51.2h-4.267c-72.533 0-132.267-64-132.267-140.8 0-25.6 12.8-55.467 12.8-55.467 12.8-25.6 4.267-59.733-21.333-76.8v0l-132.267-76.8c-4.267 0-12.8-4.267-21.333-4.267zM661.333 0c0 0 0 0 0 0v0l123.733 68.267c-4.267 8.533-17.067 42.667-17.067 76.8 0 110.933 81.067 200.533 183.467 204.8 0 8.533 8.533 55.467 8.533 93.867 0 34.133-8.533 85.333-8.533 93.867-98.133 8.533-183.467 98.133-183.467 209.067 0 38.4 12.8 72.533 17.067 76.8l-119.467 68.267c0 0-4.267 0-4.267 0 0-4.267-21.333-21.333-42.667-38.4-38.4-25.6-72.533-42.667-102.4-42.667-34.133 0-68.267 12.8-102.4 42.667-29.867 21.333-46.933 38.4-46.933 42.667 0 0-4.267 0-4.267 0v0l-128-72.533c4.267-8.533 17.067-42.667 17.067-76.8 0-110.933-81.067-200.533-183.467-204.8 0-8.533-8.533-55.467-8.533-93.867s8.533-85.333 8.533-93.867c102.4-4.267 183.467-93.867 183.467-204.8 0-38.4-12.8-72.533-17.067-76.8l115.2-68.267c0 0 4.267 0 4.267 0 4.267 4.267 21.333 21.333 46.933 42.667 38.4 29.867 72.533 42.667 106.667 42.667s68.267-17.067 106.667-42.667c25.6-21.333 42.667-42.667 46.933-46.933zM507.733 285.867c-85.333 0-153.6 72.533-153.6 162.133s68.267 162.133 153.6 162.133c85.333 0 153.6-72.533 153.6-162.133 4.267-89.6-68.267-162.133-153.6-162.133zM507.733 558.933c-55.467 0-102.4-46.933-102.4-106.667s46.933-106.667 102.4-106.667 102.4 46.933 102.4 106.667c0 55.467-42.667 106.667-102.4 106.667z" />
<glyph unicode="&#xe929;" glyph-name="linshigongyi" d="M1017.609 523.983c-18.463 122.141-79.534 232.921-173.27 313.875-92.316 78.114-210.197 122.141-332.338 122.141-25.564 0-51.129-1.42-75.273-5.681-134.924-19.883-254.225-90.896-335.179-200.255s-115.040-244.283-95.157-379.207c17.043-123.562 79.534-234.341 173.27-315.295 92.316-79.534 210.197-123.562 332.338-123.562 25.564 0 51.129 1.42 75.273 5.681 134.924 19.883 254.225 90.896 336.599 201.675 79.534 110.779 113.62 245.703 93.736 380.627zM448.089 880.466c8.521 1.42 17.043 2.84 25.564 2.84v-326.657l-190.313 264.166c49.709 29.825 105.098 49.709 164.749 59.65zM861.381 188.804c-69.592-93.736-170.43-154.807-285.47-171.85-21.304-2.84-42.607-4.261-63.911-4.261-214.458 0-399.090 160.488-430.336 372.105-17.043 115.040 11.362 230.080 80.954 323.817 18.463 24.144 38.347 46.868 61.071 66.752l251.384-347.961 399.090-220.139c-4.261-7.101-8.521-12.782-12.782-18.463zM909.67 272.599l-360.743 198.835v411.872c197.415-17.043 363.584-170.43 393.409-370.685 12.782-82.374 1.42-166.169-32.666-240.022z" />
<glyph unicode="&#xe92a;" glyph-name="picixiafa" d="M874.326 416.317l0.008-0.017-347.845-139.823c-0.067-0.023-0.119-0.043-0.17-0.066l0.012 0.005-0.161-0.065-0.008 0.015c-4.071-1.691-8.8-2.673-13.757-2.673-0.002 0-0.005 0-0.007 0v0c-0.002 0-0.005 0-0.008 0-4.958 0-9.686 0.982-14.001 2.762l0.244-0.089-0.003-0.015-0.163 0.065c-0.053 0.023-0.107 0.042-0.158 0.061l-347.844 139.84c-13.053 5.257-22.252 17.734-22.252 32.318 0 19.321 16.123 34.987 36.017 34.987 4.717 0 9.391-0.908 13.764-2.674l0.008 0.015 0.161-0.065c0.049-0.018 0.103-0.042 0.153-0.061l334.078-134.292 334.078 134.292c0.054 0.018 0.103 0.042 0.158 0.061l0.161 0.065 0.004-0.015c4.073 1.691 8.804 2.674 13.764 2.674v0c19.893 0 36.017-15.668 36.017-34.987 0.001-14.584-9.192-27.063-22.252-32.318zM874.326 567.936l0.008-0.016-347.845-139.823c-0.053-0.024-0.107-0.043-0.158-0.065l-0.161-0.065-0.008 0.015c-4.069-1.69-8.794-2.671-13.749-2.671-0.005 0-0.011 0-0.016 0h0.001c-0.003 0-0.006 0-0.009 0-4.957 0-9.685 0.981-14 2.76l0.244-0.089-0.003-0.015-0.163 0.065c-0.053 0.024-0.107 0.043-0.158 0.065l-347.845 139.839c-13.053 5.255-22.252 17.73-22.252 32.313s9.197 27.062 22.252 32.313l-0.003 0.015 347.846 139.829c0.081 0.029 0.133 0.050 0.184 0.071l-0.027-0.010 0.163 0.065 0.003-0.015c4.074 1.689 8.805 2.669 13.766 2.669s9.692-0.981 14.011-2.759l-0.245 0.089 0.008 0.015 0.161-0.065c0.049-0.023 0.103-0.042 0.158-0.061l347.839-139.843c13.060-5.252 22.252-17.731 22.252-32.313 0.001-14.584-9.192-27.058-22.251-32.313-0.001 0-0.002-0.001-0.003-0.001v0zM164.233 332.008c4.717-0.002 9.39-0.91 13.764-2.674l0.008 0.016 0.161-0.065c0.049-0.024 0.103-0.042 0.153-0.065l334.078-134.286 334.399 134.401c4.074 1.69 8.805 2.672 13.765 2.674h0.001c19.894 0 36.017-15.667 36.017-34.992 0-14.578-9.193-27.061-22.252-32.313l0.008-0.016-347.846-139.823c-0.053-0.023-0.107-0.042-0.157-0.065l-0.161-0.061-0.008 0.011c-4.073-1.69-8.804-2.673-13.764-2.674v0c-4.961 0.002-9.692 0.984-14.011 2.763l0.245-0.089-0.003-0.011-0.163 0.061c-0.053 0.024-0.107 0.043-0.158 0.065l-347.846 139.839c-13.053 5.252-22.252 17.734-22.252 32.313 0 19.324 16.124 34.992 36.018 34.992h0.002z" />
<glyph unicode="&#xe92b;" glyph-name="qiyong" d="M512 908.8c-253.44 0-460.8-207.36-460.8-460.8s207.36-460.8 460.8-460.8 460.8 207.36 460.8 460.8-207.36 460.8-460.8 460.8zM512 38.4c-225.28 0-409.6 184.32-409.6 409.6s184.32 409.6 409.6 409.6 409.6-184.32 409.6-409.6-184.32-409.6-409.6-409.6zM719.36 468.48l-307.2 204.8c-7.68 5.12-17.92 5.12-25.6 0s-12.8-12.8-12.8-23.040v-409.6c0-10.24 5.12-17.92 12.8-23.040 2.56-2.56 7.68-2.56 12.8-2.56s10.24 2.56 15.36 5.12l307.2 204.8c7.68 5.12 10.24 12.8 10.24 20.48s-7.68 17.92-12.8 23.040zM422.4 291.84v314.88l235.52-156.16-235.52-158.72z" />
<glyph unicode="&#xe92c;" glyph-name="shang" d="M426.667 789.333h170.667v-170.667h-170.667v170.667zM682.667 533.333h170.667v-170.667h-170.667v170.667zM170.667 533.333h170.667v-170.667h-170.667v170.667zM0 277.333h170.667v-170.667h-170.667v170.667zM853.333 277.333h170.667v-170.667h-170.667v170.667z" />
<glyph unicode="&#xe92d;" glyph-name="shang1" d="M657.067 213.333l-234.667 234.667 226.133 230.4c8.533 8.533 8.533 25.6 0 34.133s-25.6 8.533-34.133 0l-243.2-251.733c-8.533-8.533-8.533-25.6 0-34.133 4.267-4.267 4.267-4.267 8.533-8.533l247.467-247.467c8.533-8.533 25.6-8.533 34.133 0 4.267 17.067 4.267 34.133-4.267 42.667z" />
<glyph unicode="&#xe92e;" glyph-name="shang2" d="M524.8 674.133v0c12.8 12.8 12.8 29.867 0 42.667s-29.867 12.8-42.667 0l-260.267-247.467c-8.533-4.267-8.533-12.8-8.533-21.333s0-17.067 8.533-21.333l260.267-247.467c12.8-12.8 29.867-12.8 42.667 0s12.8 29.867 0 42.667l-238.933 226.133 238.933 226.133zM802.133 674.133v0c12.8 12.8 12.8 29.867 0 42.667s-29.867 12.8-42.667 0l-260.267-247.467c-4.267-4.267-8.533-12.8-8.533-21.333s4.267-17.067 8.533-21.333l260.267-247.467c12.8-12.8 29.867-12.8 42.667 0s12.8 29.867 0 42.667l-238.933 226.133 238.933 226.133z" />
<glyph unicode="&#xe92f;" glyph-name="shengji" d="M331.581-61.562c-19.505 0-36.571 14.629-36.571 34.133s17.067 34.133 36.571 34.133h358.4c19.505 0 36.571-14.629 36.571-34.133s-17.067-34.133-36.571-34.133h-358.4zM331.581 77.41h358.4c19.505 0 36.571 14.629 36.571 34.133v346.21c0 19.505 17.067 34.133 36.571 34.133h143.848c19.505 0 24.381 12.19 12.19 26.819l-382.781 431.543c-7.314 7.314-17.067 9.752-24.381 9.752s-17.067-2.438-24.381-9.752l-382.781-433.981c-12.19-14.629-7.314-26.819 12.19-26.819h143.848c19.505 0 36.571-14.629 36.571-34.133v-346.21c0-17.067 14.629-31.695 34.133-31.695zM368.152 145.676v312.076c0 56.076-48.762 104.838-107.276 104.838h-24.381l275.505 307.2 275.505-309.638h-24.381c-58.514 0-107.276-46.324-107.276-104.838v-312.076h-287.695v2.438z" />
<glyph unicode="&#xe930;" glyph-name="tiaoban" d="M418.075 342.069l55.084-43.032c15.301-12.006 18.102-34.063 6.003-49.529-6.523-8.29-16.555-13.564-27.819-13.564-8.21 0-15.766 2.802-21.763 7.502l0.077-0.058-129.942 101.529c-3.014 2.356-5.578 5.107-7.665 8.207l-0.080 0.126c-5.877 6.263-9.487 14.714-9.487 24.008 0 0.042 0 0.085 0 0.127v-0.007c0 19.491 15.654 35.31 35.381 35.31h400.043c19.538 0 35.381-15.678 35.381-35.31 0-19.491-15.654-35.31-35.381-35.31h-299.855zM617.696 565.489l-55.084 43.055c-8.28 6.501-13.55 16.51-13.55 27.751 0 8.256 2.843 15.848 7.603 21.85l-0.056-0.073c6.523 8.29 16.555 13.564 27.819 13.564 8.21 0 15.766-2.802 21.763-7.502l-0.077 0.058 129.942-101.529c3.107-2.401 5.673-5.226 7.745-8.333 5.885-6.285 9.487-14.76 9.487-24.129 0-19.491-15.654-35.31-35.381-35.31h-400.043c-19.538 0-35.381 15.678-35.381 35.31 0 19.515 15.654 35.31 35.381 35.31h299.855zM70.621 730.365v-564.73c0-0.063 0-0.137 0-0.212 0-38.951 31.576-70.527 70.527-70.527 0.058 0 0.116 0 0.174 0h753.137c39.042 0 70.691 31.65 70.691 70.691 0 0.017 0 0.033 0 0.050v-0.003 564.73c0 0.063 0 0.137 0 0.212 0 38.951-31.576 70.527-70.527 70.527-0.058 0-0.116 0-0.174 0h-753.137c-39.042 0-70.691-31.65-70.691-70.691 0-0.017 0-0.033 0-0.050v0.003zM0 730.365c0 0.014 0 0.031 0 0.047 0 78.044 63.268 141.312 141.312 141.312h753.146c0.049 0 0.107 0 0.165 0 77.953 0 141.147-63.194 141.147-141.147 0-0.074 0-0.149 0-0.223v0.011-564.73c0-0.014 0-0.031 0-0.047 0-78.044-63.268-141.312-141.312-141.312h-753.146c-0.049 0-0.107 0-0.165 0-77.953 0-141.147 63.194-141.147 141.147 0 0.074 0 0.149 0 0.223v-0.011 564.73z" />
<glyph unicode="&#xe931;" glyph-name="xia" d="M426.667 277.333h170.667v-170.667h-170.667v170.667zM170.667 533.333h170.667v-170.667h-170.667v170.667zM682.667 533.333h170.667v-170.667h-170.667v170.667zM853.333 789.333h170.667v-170.667h-170.667v170.667zM0 789.333h170.667v-170.667h-170.667v170.667z" />
<glyph unicode="&#xe932;" glyph-name="xia1" d="M366.933 179.2c8.533-8.533 25.6-8.533 34.133 0l247.467 247.467c4.267 0 4.267 0 4.267 4.267 8.533 8.533 8.533 25.6 0 34.133l-247.467 256c-8.533 8.533-25.6 8.533-34.133 0s-8.533-25.6 0-38.4l226.133-230.4-230.4-238.933c-8.533-8.533-8.533-25.6 0-34.133z" />
<glyph unicode="&#xe933;" glyph-name="xia2" d="M499.2 674.133l238.933-226.133-238.933-226.133c-12.8-12.8-12.8-29.867 0-42.667s29.867-12.8 42.667 0l260.267 247.467c4.267 4.267 8.533 12.8 8.533 21.333s-4.267 17.067-8.533 21.333l-260.267 247.467c-12.8 12.8-29.867 12.8-42.667 0s-12.8-29.867 0-42.667v0 0zM221.867 674.133l238.933-226.133-238.933-226.133c-12.8-12.8-12.8-29.867 0-42.667s29.867-12.8 42.667 0l260.267 247.467c4.267 4.267 8.533 12.8 8.533 21.333s-4.267 17.067-8.533 21.333l-264.533 247.467c-12.8 12.8-29.867 12.8-42.667 0-8.533-12.8-8.533-29.867 4.267-42.667v0 0z" />
<glyph unicode="&#xe934;" glyph-name="zuo" d="M170.667 533.333h170.667v-170.667h-170.667v170.667zM426.667 789.333h170.667v-170.667h-170.667v170.667zM426.667 277.333h170.667v-170.667h-170.667v170.667zM682.667 106.667h170.667v-170.667h-170.667v170.667zM682.667 960h170.667v-170.667h-170.667v170.667z" />
<glyph unicode="&#xe935;" glyph-name="--01" d="M521.21 421.013c0.502 0.503 0.992 1.020 1.469 1.549l0.033 0.037c0.494 0.438 0.979 0.889 1.453 1.361 13.057 13.056 13.057 34.22 0 47.274l-311.318 311.307c-13.056 13.056-34.221 13.056-47.277 0-13.050-13.056-13.050-34.214 0-47.27l287.686-287.673-284.733-284.719c-14.681-14.687-16.004-37.168-2.954-50.224 13.057-13.056 35.546-11.731 50.226 2.955l305.415 305.403zM858.426 423.96c13.057 13.056 13.057 34.22 0 47.274l-311.318 311.307c-13.057 13.056-34.223 13.056-47.277 0-13.050-13.056-13.050-34.214 0-47.27l287.685-287.673-284.73-284.719c-14.682-14.687-16.005-37.168-2.955-50.224 13.055-13.056 35.545-11.731 50.225 2.955l305.415 305.402c0.502 0.503 0.992 1.020 1.469 1.549l0.033 0.037c0.494 0.438 0.98 0.889 1.453 1.362z" />
<glyph unicode="&#xe936;" glyph-name="--01" d="M502.79 421.013l305.415-305.403c14.68-14.687 37.169-16.011 50.226-2.955 13.050 13.056 11.727 35.537-2.954 50.224l-284.732 284.719 287.686 287.673c13.050 13.056 13.050 34.214 0 47.27-13.057 13.056-34.222 13.056-47.277 0l-311.319-311.306c-13.057-13.056-13.057-34.219 0-47.275 0.474-0.473 0.959-0.924 1.453-1.361 0.485-0.538 0.983-1.069 1.502-1.586zM165.574 423.96c0.473-0.473 0.959-0.924 1.453-1.361 0.485-0.537 0.983-1.067 1.501-1.586l305.416-305.403c14.68-14.687 37.17-16.011 50.225-2.955 13.050 13.056 11.727 35.537-2.955 50.224l-284.73 284.719 287.685 287.673c13.050 13.056 13.050 34.214 0 47.27-13.055 13.056-34.221 13.056-47.277 0l-311.318-311.306c-13.056-13.056-13.056-34.219 0-47.275z" />
</font>
</defs>
</svg>
